<svg width="290" height="30" viewBox="0 0 290 30" fill="none" xmlns="http://www.w3.org/2000/svg">
<g clip-path="url(#clip0_1231_51)">
<path d="M71.49 5.26C71.3 5.05 71.03 4.94 70.75 4.94H68.35C68.07 4.94 67.8 5.06 67.61 5.26L45.88 28.25C45.57 28.57 45.8 29.11 46.25 29.11H69.67C70.12 29.11 70.35 28.58 70.04 28.25L68.65 26.77C68.46 26.56 68.19 26.45 67.91 26.45H53.05C52.87 26.45 52.78 26.24 52.9 26.11L64.81 13.51C65.01 13.3 65.35 13.3 65.55 13.51L79.94 28.79C80.13 28.99 80.4 29.11 80.68 29.11H92.86C93.31 29.11 93.54 28.57 93.23 28.25L71.49 5.26ZM107.21 4.94H98.48C98.2 4.94 97.97 5.17 97.97 5.45V28.6C97.97 28.88 98.2 29.11 98.48 29.11H107.21C107.49 29.11 107.72 28.88 107.72 28.6V5.45C107.72 5.17 107.49 4.94 107.21 4.94ZM170.7 4.94H161.97C161.69 4.94 161.46 5.17 161.46 5.45V28.6C161.46 28.88 161.69 29.11 161.97 29.11H170.7C170.98 29.11 171.21 28.88 171.21 28.6V5.45C171.21 5.17 170.98 4.94 170.7 4.94ZM156.35 4.94H153.15C152.87 4.94 152.6 5.06 152.41 5.26L139.23 19.23C139.03 19.44 138.69 19.44 138.49 19.23L125.31 5.26C125.12 5.05 124.85 4.94 124.57 4.94H112.84C112.39 4.94 112.16 5.47 112.47 5.8L129.44 23.79C129.62 23.98 129.72 24.23 129.72 24.49V28.6C129.72 28.88 129.95 29.11 130.23 29.11H138.97C139.25 29.11 139.48 28.88 139.48 28.6V24.49C139.48 24.23 139.58 23.98 139.76 23.79L156.73 5.8C157.04 5.47 156.81 4.94 156.36 4.94M23.58 14.29C23.46 14.2 23.47 14.02 23.6 13.95L37.48 5.89C37.93 5.63 37.75 4.94 37.22 4.94H32.8C32.62 4.94 32.44 4.99 32.29 5.08L13.55 15.97C13.23 16.16 13.21 16.61 13.51 16.82L30.16 28.92C30.33 29.05 30.54 29.12 30.76 29.12H42.42C42.92 29.12 43.12 28.49 42.72 28.2L23.58 14.29ZM9.24 4.94H0.51C0.23 4.94 0 5.17 0 5.45V28.6C0 28.88 0.23 29.11 0.51 29.11H9.24C9.52 29.11 9.75 28.88 9.75 28.6V5.45C9.75 5.17 9.52 4.94 9.24 4.94Z" fill="#231F20"/>
<path d="M199.6 17.3H231.54L233.54 11.82H201.6L201.73 11.46L203.45 6.74C203.91 5.49 204.96 5.49 204.96 5.49H238.16L240.16 0H204.63C201.51 0 198.07 2.52 196.93 5.64L190.43 23.47C189.29 26.59 190.9 29.11 194.02 29.11H229.54L231.54 23.62H198.34C197.48 23.62 197.46 23.14 197.74 22.37L199.64 17.15L199.72 16.94" fill="#000100"/>
<path d="M288.8 0.12H288.48L288.57 0L248.11 0.05C247.69 0.05 246.39 0.32 245.98 0.66L243.86 2.41C243.45 2.75 242.95 3.5 242.76 4.09L240.43 12.12C240.32 12.32 240.23 12.53 240.18 12.73L239.84 14.03C239.68 14.63 239.9 15.12 240.34 15.12L274.05 15.17C274.48 15.17 274.68 15.66 274.49 16.26L272.57 22.08C272.38 22.67 271.88 23.15 271.45 23.15L240.55 23.1C240.12 23.1 239.43 23.32 239.01 23.58L236.28 25.32C235.87 25.59 235.4 26.28 235.25 26.86L234.97 27.94C234.82 28.52 235.04 28.99 235.46 28.99H235.78L235.69 29.11L276.15 29.06C276.57 29.06 277.87 28.79 278.28 28.45L280.4 26.7C280.81 26.36 281.31 25.61 281.5 25.02L285.17 14.34C285.37 13.72 285.39 12.8 285.21 12.3L284.45 10.16C284.27 9.66 283.11 9.16 282.66 9.16L251.13 9.09L251.68 7.04C251.87 6.45 252.36 5.97 252.8 5.97L283.7 6.02C284.13 6.02 284.82 5.8 285.24 5.54L287.96 3.8C288.38 3.53 288.84 2.84 288.99 2.26L289.27 1.18C289.42 0.6 289.2 0.13 288.78 0.13L288.8 0.12Z" fill="#A32B3F"/>
</g>
<defs>
<clipPath id="clip0_1231_51">
<rect width="289.35" height="29.11" fill="white"/>
</clipPath>
</defs>
</svg>
